<?xml version="1.0" encoding="UTF-8"?>
<svg xmlns="http://www.w3.org/2000/svg" width="1000" height="800" viewBox="0 0 1000 800">
  <defs>
    <style>
      .room-label { font-family: Arial, sans-serif; font-weight: 500; }
    </style>
  </defs>
  
  <!-- Background -->
  <rect width="1000" height="800" fill="#ffffff" />
  
  <!-- Footprint (boundary) -->
  <path d="M 60.00 693.33 L 940.00 693.33 L 940.00 106.67 L 60.00 106.67 Z" fill="none" stroke="#7f8c8d" stroke-width="2" stroke-dasharray="8,4" />
  
  <!-- Rooms -->
  <path d="M 304.44 693.33 L 377.78 693.33 L 377.78 106.67 L 304.44 106.67 Z" fill="#ecf0f1" stroke="#bdc3c7" stroke-width="1" />
    <path d="M 377.78 480.67 L 940.00 480.67 L 940.00 106.67 L 377.78 106.67 Z" fill="#ecf0f1" stroke="#bdc3c7" stroke-width="1" />
    <path d="M 377.78 693.33 L 940.00 693.33 L 940.00 480.67 L 377.78 480.67 Z" fill="#ecf0f1" stroke="#bdc3c7" stroke-width="1" />
    <path d="M 60.00 302.22 L 304.44 302.22 L 304.44 106.67 L 60.00 106.67 Z" fill="#ecf0f1" stroke="#bdc3c7" stroke-width="1" />
    <path d="M 60.00 693.33 L 304.44 693.33 L 304.44 444.00 L 60.00 444.00 Z" fill="#ecf0f1" stroke="#bdc3c7" stroke-width="1" />
    <path d="M 60.00 444.00 L 304.44 444.00 L 304.44 302.22 L 60.00 302.22 Z" fill="#ecf0f1" stroke="#bdc3c7" stroke-width="1" />
  
  <!-- Courtyards -->
  
  
  <!-- Walls -->
  <line x1="377.78" y1="480.67" x2="377.78" y2="106.67" stroke="#2c3e50" stroke-width="3" stroke-linecap="round" />
    <line x1="377.78" y1="693.33" x2="377.78" y2="480.67" stroke="#2c3e50" stroke-width="3" stroke-linecap="round" />
    <line x1="304.44" y1="302.22" x2="304.44" y2="106.67" stroke="#2c3e50" stroke-width="3" stroke-linecap="round" />
    <line x1="304.44" y1="693.33" x2="304.44" y2="444.00" stroke="#2c3e50" stroke-width="3" stroke-linecap="round" />
    <line x1="304.44" y1="444.00" x2="304.44" y2="302.22" stroke="#2c3e50" stroke-width="3" stroke-linecap="round" />
    <line x1="377.78" y1="480.67" x2="940.00" y2="480.67" stroke="#2c3e50" stroke-width="3" stroke-linecap="round" />
    <line x1="60.00" y1="302.22" x2="304.44" y2="302.22" stroke="#2c3e50" stroke-width="3" stroke-linecap="round" />
    <line x1="60.00" y1="444.00" x2="304.44" y2="444.00" stroke="#2c3e50" stroke-width="3" stroke-linecap="round" />
    <line x1="304.44" y1="693.33" x2="377.78" y2="693.33" stroke="#2c3e50" stroke-width="3" stroke-linecap="round" />
    <line x1="304.44" y1="106.67" x2="377.78" y2="106.67" stroke="#2c3e50" stroke-width="3" stroke-linecap="round" />
    <line x1="940.00" y1="480.67" x2="940.00" y2="106.67" stroke="#2c3e50" stroke-width="3" stroke-linecap="round" />
    <line x1="377.78" y1="106.67" x2="940.00" y2="106.67" stroke="#2c3e50" stroke-width="3" stroke-linecap="round" />
    <line x1="377.78" y1="693.33" x2="940.00" y2="693.33" stroke="#2c3e50" stroke-width="3" stroke-linecap="round" />
    <line x1="940.00" y1="693.33" x2="940.00" y2="480.67" stroke="#2c3e50" stroke-width="3" stroke-linecap="round" />
    <line x1="60.00" y1="106.67" x2="304.44" y2="106.67" stroke="#2c3e50" stroke-width="3" stroke-linecap="round" />
    <line x1="60.00" y1="302.22" x2="60.00" y2="106.67" stroke="#2c3e50" stroke-width="3" stroke-linecap="round" />
    <line x1="60.00" y1="693.33" x2="304.44" y2="693.33" stroke="#2c3e50" stroke-width="3" stroke-linecap="round" />
    <line x1="60.00" y1="693.33" x2="60.00" y2="444.00" stroke="#2c3e50" stroke-width="3" stroke-linecap="round" />
    <line x1="60.00" y1="444.00" x2="60.00" y2="302.22" stroke="#2c3e50" stroke-width="3" stroke-linecap="round" />
  
  <!-- Openings (doors/windows) -->
  <line x1="377.78" y1="315.67" x2="377.78" y2="271.67" stroke="#e74c3c" stroke-width="4" stroke-linecap="round" />
    <line x1="377.78" y1="609.00" x2="377.78" y2="565.00" stroke="#e74c3c" stroke-width="4" stroke-linecap="round" />
    <line x1="304.44" y1="226.44" x2="304.44" y2="182.44" stroke="#e74c3c" stroke-width="4" stroke-linecap="round" />
    <line x1="304.44" y1="590.67" x2="304.44" y2="546.67" stroke="#e74c3c" stroke-width="4" stroke-linecap="round" />
    <line x1="636.89" y1="480.67" x2="680.89" y2="480.67" stroke="#e74c3c" stroke-width="4" stroke-linecap="round" />
    <line x1="304.44" y1="395.11" x2="304.44" y2="351.11" stroke="#e74c3c" stroke-width="4" stroke-linecap="round" />
    <line x1="316.67" y1="693.33" x2="365.56" y2="693.33" stroke="#e74c3c" stroke-width="4" stroke-linecap="round" />
    <line x1="603.89" y1="106.67" x2="713.89" y2="106.67" stroke="#3498db" stroke-width="3" stroke-linecap="round" />
    <line x1="145.56" y1="106.67" x2="218.89" y2="106.67" stroke="#3498db" stroke-width="3" stroke-linecap="round" />
    <line x1="60.00" y1="605.33" x2="60.00" y2="532.00" stroke="#3498db" stroke-width="3" stroke-linecap="round" />
    <line x1="60.00" y1="391.44" x2="60.00" y2="354.78" stroke="#3498db" stroke-width="3" stroke-linecap="round" />
  
  <!-- Labels -->
  <text x="341.11" y="400.00" font-size="14" fill="#2c3e50" text-anchor="middle" dominant-baseline="middle" font-family="Arial, sans-serif">Hallway</text>
    <text x="658.89" y="293.67" font-size="14" fill="#2c3e50" text-anchor="middle" dominant-baseline="middle" font-family="Arial, sans-serif">Living Room</text>
    <text x="658.89" y="587.00" font-size="14" fill="#2c3e50" text-anchor="middle" dominant-baseline="middle" font-family="Arial, sans-serif">Kitchen</text>
    <text x="182.22" y="204.44" font-size="14" fill="#2c3e50" text-anchor="middle" dominant-baseline="middle" font-family="Arial, sans-serif">Master Bedroom</text>
    <text x="182.22" y="568.67" font-size="14" fill="#2c3e50" text-anchor="middle" dominant-baseline="middle" font-family="Arial, sans-serif">Bedroom 2</text>
    <text x="182.22" y="373.11" font-size="14" fill="#2c3e50" text-anchor="middle" dominant-baseline="middle" font-family="Arial, sans-serif">Bathroom</text>
  
  <!-- Dimensions -->
  
  
  <!-- Compass / Orientation -->
  
</svg>