<?xml version="1.0" encoding="UTF-8"?>
<svg xmlns="http://www.w3.org/2000/svg" width="1000" height="800" viewBox="0 0 1000 800">
  <defs>
    <style>
      .room-label { font-family: Arial, sans-serif; font-weight: 500; }
    </style>
  </defs>
  
  <!-- Background -->
  <rect width="1000" height="800" fill="#ffffff" />
  
  <!-- Footprint (boundary) -->
  <path d="M 273.33 740.00 L 726.67 740.00 L 726.67 60.00 L 273.33 60.00 Z" fill="none" stroke="#7f8c8d" stroke-width="2" stroke-dasharray="8,4" />
  
  <!-- Rooms -->
  <path d="M 273.33 740.00 L 409.33 740.00 L 409.33 558.67 L 273.33 558.67 Z" fill="#ecf0f1" stroke="#bdc3c7" stroke-width="1" />
    <path d="M 409.33 740.00 L 590.67 740.00 L 590.67 558.67 L 409.33 558.67 Z" fill="#ecf0f1" stroke="#bdc3c7" stroke-width="1" />
    <path d="M 590.67 740.00 L 726.67 740.00 L 726.67 558.67 L 590.67 558.67 Z" fill="#ecf0f1" stroke="#bdc3c7" stroke-width="1" />
    <path d="M 273.33 558.67 L 409.33 558.67 L 409.33 400.00 L 273.33 400.00 Z" fill="#ecf0f1" stroke="#bdc3c7" stroke-width="1" />
    <path d="M 273.33 400.00 L 409.33 400.00 L 409.33 241.33 L 273.33 241.33 Z" fill="#ecf0f1" stroke="#bdc3c7" stroke-width="1" />
    <path d="M 590.67 558.67 L 726.67 558.67 L 726.67 400.00 L 590.67 400.00 Z" fill="#ecf0f1" stroke="#bdc3c7" stroke-width="1" />
    <path d="M 590.67 400.00 L 726.67 400.00 L 726.67 241.33 L 590.67 241.33 Z" fill="#ecf0f1" stroke="#bdc3c7" stroke-width="1" />
    <path d="M 273.33 241.33 L 500.00 241.33 L 500.00 60.00 L 273.33 60.00 Z" fill="#ecf0f1" stroke="#bdc3c7" stroke-width="1" />
    <path d="M 500.00 241.33 L 590.67 241.33 L 590.67 60.00 L 500.00 60.00 Z" fill="#ecf0f1" stroke="#bdc3c7" stroke-width="1" />
    <path d="M 590.67 241.33 L 726.67 241.33 L 726.67 60.00 L 590.67 60.00 Z" fill="#ecf0f1" stroke="#bdc3c7" stroke-width="1" />
  
  <!-- Courtyards -->
  <path d="M 409.33 558.67 L 590.67 558.67 L 590.67 241.33 L 409.33 241.33 Z" fill="#d5f5e3" stroke="#27ae60" stroke-width="2" stroke-dasharray="4,2" />
  
  <!-- Walls -->
  <line x1="409.33" y1="740.00" x2="409.33" y2="558.67" stroke="#2c3e50" stroke-width="3" stroke-linecap="round" />
    <line x1="273.33" y1="558.67" x2="409.33" y2="558.67" stroke="#2c3e50" stroke-width="3" stroke-linecap="round" />
    <line x1="590.67" y1="740.00" x2="590.67" y2="558.67" stroke="#2c3e50" stroke-width="3" stroke-linecap="round" />
    <line x1="590.67" y1="558.67" x2="726.67" y2="558.67" stroke="#2c3e50" stroke-width="3" stroke-linecap="round" />
    <line x1="273.33" y1="400.00" x2="409.33" y2="400.00" stroke="#2c3e50" stroke-width="3" stroke-linecap="round" />
    <line x1="273.33" y1="241.33" x2="409.33" y2="241.33" stroke="#2c3e50" stroke-width="3" stroke-linecap="round" />
    <line x1="590.67" y1="400.00" x2="726.67" y2="400.00" stroke="#2c3e50" stroke-width="3" stroke-linecap="round" />
    <line x1="590.67" y1="241.33" x2="726.67" y2="241.33" stroke="#2c3e50" stroke-width="3" stroke-linecap="round" />
    <line x1="500.00" y1="241.33" x2="500.00" y2="60.00" stroke="#2c3e50" stroke-width="3" stroke-linecap="round" />
    <line x1="590.67" y1="241.33" x2="590.67" y2="60.00" stroke="#2c3e50" stroke-width="3" stroke-linecap="round" />
    <line x1="273.33" y1="740.00" x2="409.33" y2="740.00" stroke="#2c3e50" stroke-width="3" stroke-linecap="round" />
    <line x1="273.33" y1="740.00" x2="273.33" y2="558.67" stroke="#2c3e50" stroke-width="3" stroke-linecap="round" />
    <line x1="409.33" y1="740.00" x2="590.67" y2="740.00" stroke="#2c3e50" stroke-width="3" stroke-linecap="round" />
    <line x1="409.33" y1="558.67" x2="590.67" y2="558.67" stroke="#2c3e50" stroke-width="3" stroke-linecap="round" />
    <line x1="590.67" y1="740.00" x2="726.67" y2="740.00" stroke="#2c3e50" stroke-width="3" stroke-linecap="round" />
    <line x1="726.67" y1="740.00" x2="726.67" y2="558.67" stroke="#2c3e50" stroke-width="3" stroke-linecap="round" />
    <line x1="409.33" y1="558.67" x2="409.33" y2="400.00" stroke="#2c3e50" stroke-width="3" stroke-linecap="round" />
    <line x1="273.33" y1="558.67" x2="273.33" y2="400.00" stroke="#2c3e50" stroke-width="3" stroke-linecap="round" />
    <line x1="409.33" y1="400.00" x2="409.33" y2="241.33" stroke="#2c3e50" stroke-width="3" stroke-linecap="round" />
    <line x1="273.33" y1="400.00" x2="273.33" y2="241.33" stroke="#2c3e50" stroke-width="3" stroke-linecap="round" />
    <line x1="726.67" y1="558.67" x2="726.67" y2="400.00" stroke="#2c3e50" stroke-width="3" stroke-linecap="round" />
    <line x1="590.67" y1="558.67" x2="590.67" y2="400.00" stroke="#2c3e50" stroke-width="3" stroke-linecap="round" />
    <line x1="726.67" y1="400.00" x2="726.67" y2="241.33" stroke="#2c3e50" stroke-width="3" stroke-linecap="round" />
    <line x1="590.67" y1="400.00" x2="590.67" y2="241.33" stroke="#2c3e50" stroke-width="3" stroke-linecap="round" />
    <line x1="409.33" y1="241.33" x2="500.00" y2="241.33" stroke="#2c3e50" stroke-width="3" stroke-linecap="round" />
    <line x1="273.33" y1="60.00" x2="500.00" y2="60.00" stroke="#2c3e50" stroke-width="3" stroke-linecap="round" />
    <line x1="273.33" y1="241.33" x2="273.33" y2="60.00" stroke="#2c3e50" stroke-width="3" stroke-linecap="round" />
    <line x1="500.00" y1="241.33" x2="590.67" y2="241.33" stroke="#2c3e50" stroke-width="3" stroke-linecap="round" />
    <line x1="500.00" y1="60.00" x2="590.67" y2="60.00" stroke="#2c3e50" stroke-width="3" stroke-linecap="round" />
    <line x1="726.67" y1="241.33" x2="726.67" y2="60.00" stroke="#2c3e50" stroke-width="3" stroke-linecap="round" />
    <line x1="590.67" y1="60.00" x2="726.67" y2="60.00" stroke="#2c3e50" stroke-width="3" stroke-linecap="round" />
  
  <!-- Openings (doors/windows) -->
  <line x1="409.33" y1="659.53" x2="409.33" y2="639.13" stroke="#e74c3c" stroke-width="4" stroke-linecap="round" />
    <line x1="590.67" y1="659.53" x2="590.67" y2="639.13" stroke="#e74c3c" stroke-width="4" stroke-linecap="round" />
    <line x1="331.13" y1="558.67" x2="351.53" y2="558.67" stroke="#e74c3c" stroke-width="4" stroke-linecap="round" />
    <line x1="331.13" y1="400.00" x2="351.53" y2="400.00" stroke="#e74c3c" stroke-width="4" stroke-linecap="round" />
    <line x1="648.47" y1="558.67" x2="668.87" y2="558.67" stroke="#e74c3c" stroke-width="4" stroke-linecap="round" />
    <line x1="648.47" y1="400.00" x2="668.87" y2="400.00" stroke="#e74c3c" stroke-width="4" stroke-linecap="round" />
    <line x1="500.00" y1="160.87" x2="500.00" y2="140.47" stroke="#e74c3c" stroke-width="4" stroke-linecap="round" />
    <line x1="590.67" y1="160.87" x2="590.67" y2="140.47" stroke="#e74c3c" stroke-width="4" stroke-linecap="round" />
    <line x1="330.00" y1="740.00" x2="352.67" y2="740.00" stroke="#e74c3c" stroke-width="4" stroke-linecap="round" />
    <line x1="483.00" y1="740.00" x2="517.00" y2="740.00" stroke="#3498db" stroke-width="3" stroke-linecap="round" />
    <line x1="726.67" y1="666.33" x2="726.67" y2="632.33" stroke="#3498db" stroke-width="3" stroke-linecap="round" />
    <line x1="347.00" y1="60.00" x2="381.00" y2="60.00" stroke="#3498db" stroke-width="3" stroke-linecap="round" />
    <line x1="726.67" y1="496.33" x2="726.67" y2="462.33" stroke="#3498db" stroke-width="3" stroke-linecap="round" />
  
  <!-- Labels -->
  <text x="341.33" y="649.33" font-size="14" fill="#2c3e50" text-anchor="middle" dominant-baseline="middle" font-family="Arial, sans-serif">Entry</text>
    <text x="500.00" y="649.33" font-size="14" fill="#2c3e50" text-anchor="middle" dominant-baseline="middle" font-family="Arial, sans-serif">Living Room</text>
    <text x="658.67" y="649.33" font-size="14" fill="#2c3e50" text-anchor="middle" dominant-baseline="middle" font-family="Arial, sans-serif">Dining</text>
    <text x="341.33" y="479.33" font-size="14" fill="#2c3e50" text-anchor="middle" dominant-baseline="middle" font-family="Arial, sans-serif">Kitchen</text>
    <text x="341.33" y="320.67" font-size="14" fill="#2c3e50" text-anchor="middle" dominant-baseline="middle" font-family="Arial, sans-serif">Laundry</text>
    <text x="658.67" y="479.33" font-size="14" fill="#2c3e50" text-anchor="middle" dominant-baseline="middle" font-family="Arial, sans-serif">Bedroom 1</text>
    <text x="658.67" y="320.67" font-size="14" fill="#2c3e50" text-anchor="middle" dominant-baseline="middle" font-family="Arial, sans-serif">Bath</text>
    <text x="386.67" y="150.67" font-size="14" fill="#2c3e50" text-anchor="middle" dominant-baseline="middle" font-family="Arial, sans-serif">Master Bedroom</text>
    <text x="545.33" y="150.67" font-size="11" fill="#2c3e50" text-anchor="middle" dominant-baseline="middle" font-family="Arial, sans-serif">Master Bath</text>
    <text x="658.67" y="150.67" font-size="13" fill="#2c3e50" text-anchor="middle" dominant-baseline="middle" font-family="Arial, sans-serif">Walk-in Closet</text>
    <text x="500.00" y="400.00" font-size="14" fill="#27ae60" text-anchor="middle" dominant-baseline="middle" font-family="Arial, sans-serif" font-style="italic">Central Patio</text>
  
  <!-- Dimensions -->
  
</svg>