<?xml version="1.0" encoding="UTF-8"?>
<svg xmlns="http://www.w3.org/2000/svg" width="1000" height="800" viewBox="0 0 1000 800">
  <defs>
    <style>
      .room-label { font-family: Arial, sans-serif; font-weight: 500; }
    </style>
  </defs>
  
  <!-- Background -->
  <rect width="1000" height="800" fill="#ffffff" />
  
  <!-- Footprint (boundary) -->
  <path d="M 62.86 740.00 L 937.14 740.00 L 937.14 60.00 L 62.86 60.00 Z" fill="none" stroke="#7f8c8d" stroke-width="2" stroke-dasharray="8,4" />
  
  <!-- Rooms -->
  <path d="M 62.86 740.00 L 354.29 740.00 L 354.29 448.57 L 62.86 448.57 Z" fill="#ecf0f1" stroke="#bdc3c7" stroke-width="1" />
    <path d="M 354.29 740.00 L 548.57 740.00 L 548.57 545.71 L 354.29 545.71 Z" fill="#ecf0f1" stroke="#bdc3c7" stroke-width="1" />
    <path d="M 548.57 740.00 L 742.86 740.00 L 742.86 545.71 L 548.57 545.71 Z" fill="#ecf0f1" stroke="#bdc3c7" stroke-width="1" />
    <path d="M 62.86 448.57 L 548.57 448.57 L 548.57 60.00 L 62.86 60.00 Z" fill="#ecf0f1" stroke="#bdc3c7" stroke-width="1" />
    <path d="M 548.57 351.43 L 742.86 351.43 L 742.86 60.00 L 548.57 60.00 Z" fill="#ecf0f1" stroke="#bdc3c7" stroke-width="1" />
    <path d="M 548.57 545.71 L 742.86 545.71 L 742.86 351.43 L 548.57 351.43 Z" fill="#ecf0f1" stroke="#bdc3c7" stroke-width="1" />
    <path d="M 742.86 351.43 L 937.14 351.43 L 937.14 60.00 L 742.86 60.00 Z" fill="#ecf0f1" stroke="#bdc3c7" stroke-width="1" />
    <path d="M 742.86 545.71 L 937.14 545.71 L 937.14 351.43 L 742.86 351.43 Z" fill="#ecf0f1" stroke="#bdc3c7" stroke-width="1" />
    <path d="M 742.86 740.00 L 937.14 740.00 L 937.14 545.71 L 742.86 545.71 Z" fill="#ecf0f1" stroke="#bdc3c7" stroke-width="1" />
  
  <!-- Courtyards -->
  
  
  <!-- Walls -->
  <line x1="354.29" y1="740.00" x2="354.29" y2="545.71" stroke="#2c3e50" stroke-width="3" stroke-linecap="round" />
    <line x1="62.86" y1="448.57" x2="354.29" y2="448.57" stroke="#2c3e50" stroke-width="3" stroke-linecap="round" />
    <line x1="548.57" y1="740.00" x2="548.57" y2="545.71" stroke="#2c3e50" stroke-width="3" stroke-linecap="round" />
    <line x1="742.86" y1="740.00" x2="742.86" y2="545.71" stroke="#2c3e50" stroke-width="3" stroke-linecap="round" />
    <line x1="548.57" y1="545.71" x2="742.86" y2="545.71" stroke="#2c3e50" stroke-width="3" stroke-linecap="round" />
    <line x1="548.57" y1="351.43" x2="548.57" y2="60.00" stroke="#2c3e50" stroke-width="3" stroke-linecap="round" />
    <line x1="548.57" y1="448.57" x2="548.57" y2="351.43" stroke="#2c3e50" stroke-width="3" stroke-linecap="round" />
    <line x1="548.57" y1="351.43" x2="742.86" y2="351.43" stroke="#2c3e50" stroke-width="3" stroke-linecap="round" />
    <line x1="742.86" y1="351.43" x2="742.86" y2="60.00" stroke="#2c3e50" stroke-width="3" stroke-linecap="round" />
    <line x1="742.86" y1="545.71" x2="742.86" y2="351.43" stroke="#2c3e50" stroke-width="3" stroke-linecap="round" />
    <line x1="742.86" y1="351.43" x2="937.14" y2="351.43" stroke="#2c3e50" stroke-width="3" stroke-linecap="round" />
    <line x1="742.86" y1="545.71" x2="937.14" y2="545.71" stroke="#2c3e50" stroke-width="3" stroke-linecap="round" />
    <line x1="62.86" y1="740.00" x2="354.29" y2="740.00" stroke="#2c3e50" stroke-width="3" stroke-linecap="round" />
    <line x1="354.29" y1="545.71" x2="354.29" y2="448.57" stroke="#2c3e50" stroke-width="3" stroke-linecap="round" />
    <line x1="62.86" y1="740.00" x2="62.86" y2="448.57" stroke="#2c3e50" stroke-width="3" stroke-linecap="round" />
    <line x1="354.29" y1="740.00" x2="548.57" y2="740.00" stroke="#2c3e50" stroke-width="3" stroke-linecap="round" />
    <line x1="354.29" y1="545.71" x2="548.57" y2="545.71" stroke="#2c3e50" stroke-width="3" stroke-linecap="round" />
    <line x1="548.57" y1="740.00" x2="742.86" y2="740.00" stroke="#2c3e50" stroke-width="3" stroke-linecap="round" />
    <line x1="354.29" y1="448.57" x2="548.57" y2="448.57" stroke="#2c3e50" stroke-width="3" stroke-linecap="round" />
    <line x1="62.86" y1="60.00" x2="548.57" y2="60.00" stroke="#2c3e50" stroke-width="3" stroke-linecap="round" />
    <line x1="62.86" y1="448.57" x2="62.86" y2="60.00" stroke="#2c3e50" stroke-width="3" stroke-linecap="round" />
    <line x1="548.57" y1="60.00" x2="742.86" y2="60.00" stroke="#2c3e50" stroke-width="3" stroke-linecap="round" />
    <line x1="548.57" y1="545.71" x2="548.57" y2="448.57" stroke="#2c3e50" stroke-width="3" stroke-linecap="round" />
    <line x1="937.14" y1="351.43" x2="937.14" y2="60.00" stroke="#2c3e50" stroke-width="3" stroke-linecap="round" />
    <line x1="742.86" y1="60.00" x2="937.14" y2="60.00" stroke="#2c3e50" stroke-width="3" stroke-linecap="round" />
    <line x1="937.14" y1="545.71" x2="937.14" y2="351.43" stroke="#2c3e50" stroke-width="3" stroke-linecap="round" />
    <line x1="742.86" y1="740.00" x2="937.14" y2="740.00" stroke="#2c3e50" stroke-width="3" stroke-linecap="round" />
    <line x1="937.14" y1="740.00" x2="937.14" y2="545.71" stroke="#2c3e50" stroke-width="3" stroke-linecap="round" />
  
  <!-- Openings (doors/windows) -->
  <line x1="427.14" y1="740.00" x2="475.71" y2="740.00" stroke="#e74c3c" stroke-width="4" stroke-linecap="round" />
    <line x1="548.57" y1="227.57" x2="548.57" y2="183.86" stroke="#e74c3c" stroke-width="4" stroke-linecap="round" />
    <line x1="623.86" y1="351.43" x2="667.57" y2="351.43" stroke="#e74c3c" stroke-width="4" stroke-linecap="round" />
    <line x1="623.86" y1="545.71" x2="667.57" y2="545.71" stroke="#e74c3c" stroke-width="4" stroke-linecap="round" />
    <line x1="354.29" y1="664.71" x2="354.29" y2="621.00" stroke="#e74c3c" stroke-width="4" stroke-linecap="round" />
    <line x1="742.86" y1="227.57" x2="742.86" y2="183.86" stroke="#e74c3c" stroke-width="4" stroke-linecap="round" />
    <line x1="742.86" y1="470.43" x2="742.86" y2="426.71" stroke="#e74c3c" stroke-width="4" stroke-linecap="round" />
    <line x1="742.86" y1="664.71" x2="742.86" y2="621.00" stroke="#e74c3c" stroke-width="4" stroke-linecap="round" />
    <line x1="62.86" y1="315.00" x2="62.86" y2="193.57" stroke="#3498db" stroke-width="3" stroke-linecap="round" />
    <line x1="184.29" y1="60.00" x2="330.00" y2="60.00" stroke="#3498db" stroke-width="3" stroke-linecap="round" />
    <line x1="597.14" y1="60.00" x2="694.29" y2="60.00" stroke="#3498db" stroke-width="3" stroke-linecap="round" />
    <line x1="937.14" y1="249.43" x2="937.14" y2="162.00" stroke="#3498db" stroke-width="3" stroke-linecap="round" />
    <line x1="803.57" y1="60.00" x2="876.43" y2="60.00" stroke="#3498db" stroke-width="3" stroke-linecap="round" />
    <line x1="937.14" y1="485.00" x2="937.14" y2="412.14" stroke="#3498db" stroke-width="3" stroke-linecap="round" />
  
  <!-- Labels -->
  <text x="208.57" y="594.29" font-size="14" fill="#2c3e50" text-anchor="middle" dominant-baseline="middle" font-family="Arial, sans-serif">Garage</text>
    <text x="451.43" y="642.86" font-size="14" fill="#2c3e50" text-anchor="middle" dominant-baseline="middle" font-family="Arial, sans-serif">Entry</text>
    <text x="645.71" y="642.86" font-size="14" fill="#2c3e50" text-anchor="middle" dominant-baseline="middle" font-family="Arial, sans-serif">Laundry</text>
    <text x="305.71" y="254.29" font-size="14" fill="#2c3e50" text-anchor="middle" dominant-baseline="middle" font-family="Arial, sans-serif">Living Room</text>
    <text x="645.71" y="205.71" font-size="14" fill="#2c3e50" text-anchor="middle" dominant-baseline="middle" font-family="Arial, sans-serif">Dining</text>
    <text x="645.71" y="448.57" font-size="14" fill="#2c3e50" text-anchor="middle" dominant-baseline="middle" font-family="Arial, sans-serif">Kitchen</text>
    <text x="840.00" y="205.71" font-size="14" fill="#2c3e50" text-anchor="middle" dominant-baseline="middle" font-family="Arial, sans-serif">Master</text>
    <text x="840.00" y="448.57" font-size="14" fill="#2c3e50" text-anchor="middle" dominant-baseline="middle" font-family="Arial, sans-serif">Bedroom 2</text>
    <text x="840.00" y="642.86" font-size="14" fill="#2c3e50" text-anchor="middle" dominant-baseline="middle" font-family="Arial, sans-serif">Bath</text>
  
  <!-- Dimensions -->
  
</svg>