<?xml version="1.0" encoding="UTF-8"?>
<svg xmlns="http://www.w3.org/2000/svg" width="1000" height="800" viewBox="0 0 1000 800">
  <defs>
    <style>
      .room-label { font-family: Arial, sans-serif; font-weight: 500; }
    </style>
  </defs>
  
  <!-- Background -->
  <rect width="1000" height="800" fill="#ffffff" />
  
  <!-- Footprint (boundary) -->
  <path d="M 60.00 714.29 L 940.00 714.29 L 940.00 85.71 L 60.00 85.71 Z" fill="none" stroke="#7f8c8d" stroke-width="2" stroke-dasharray="8,4" />
  
  <!-- Rooms -->
  <path d="M 437.14 481.71 L 735.71 481.71 L 735.71 85.71 L 437.14 85.71 Z" fill="#ecf0f1" stroke="#bdc3c7" stroke-width="1" />
    <path d="M 735.71 359.14 L 940.00 359.14 L 940.00 85.71 L 735.71 85.71 Z" fill="#ecf0f1" stroke="#bdc3c7" stroke-width="1" />
    <path d="M 60.00 337.14 L 311.43 337.14 L 311.43 85.71 L 60.00 85.71 Z" fill="#ecf0f1" stroke="#bdc3c7" stroke-width="1" />
    <path d="M 60.00 569.71 L 292.57 569.71 L 292.57 337.14 L 60.00 337.14 Z" fill="#ecf0f1" stroke="#bdc3c7" stroke-width="1" />
    <path d="M 292.57 516.29 L 424.57 516.29 L 424.57 337.14 L 292.57 337.14 Z" fill="#ecf0f1" stroke="#bdc3c7" stroke-width="1" />
  
  <!-- Courtyards -->
  
  
  <!-- Walls -->
  <line x1="735.71" y1="359.14" x2="735.71" y2="85.71" stroke="#2c3e50" stroke-width="3" stroke-linecap="round" />
    <line x1="60.00" y1="337.14" x2="292.57" y2="337.14" stroke="#2c3e50" stroke-width="3" stroke-linecap="round" />
    <line x1="292.57" y1="337.14" x2="311.43" y2="337.14" stroke="#2c3e50" stroke-width="3" stroke-linecap="round" />
    <line x1="292.57" y1="516.29" x2="292.57" y2="337.14" stroke="#2c3e50" stroke-width="3" stroke-linecap="round" />
    <line x1="437.14" y1="481.71" x2="735.71" y2="481.71" stroke="#2c3e50" stroke-width="3" stroke-linecap="round" />
    <line x1="735.71" y1="481.71" x2="735.71" y2="359.14" stroke="#2c3e50" stroke-width="3" stroke-linecap="round" />
    <line x1="437.14" y1="85.71" x2="735.71" y2="85.71" stroke="#2c3e50" stroke-width="3" stroke-linecap="round" />
    <line x1="437.14" y1="481.71" x2="437.14" y2="85.71" stroke="#2c3e50" stroke-width="3" stroke-linecap="round" />
    <line x1="735.71" y1="359.14" x2="940.00" y2="359.14" stroke="#2c3e50" stroke-width="3" stroke-linecap="round" />
    <line x1="940.00" y1="359.14" x2="940.00" y2="85.71" stroke="#2c3e50" stroke-width="3" stroke-linecap="round" />
    <line x1="735.71" y1="85.71" x2="940.00" y2="85.71" stroke="#2c3e50" stroke-width="3" stroke-linecap="round" />
    <line x1="311.43" y1="337.14" x2="311.43" y2="85.71" stroke="#2c3e50" stroke-width="3" stroke-linecap="round" />
    <line x1="60.00" y1="85.71" x2="311.43" y2="85.71" stroke="#2c3e50" stroke-width="3" stroke-linecap="round" />
    <line x1="60.00" y1="337.14" x2="60.00" y2="85.71" stroke="#2c3e50" stroke-width="3" stroke-linecap="round" />
    <line x1="60.00" y1="569.71" x2="292.57" y2="569.71" stroke="#2c3e50" stroke-width="3" stroke-linecap="round" />
    <line x1="292.57" y1="569.71" x2="292.57" y2="516.29" stroke="#2c3e50" stroke-width="3" stroke-linecap="round" />
    <line x1="60.00" y1="569.71" x2="60.00" y2="337.14" stroke="#2c3e50" stroke-width="3" stroke-linecap="round" />
    <line x1="292.57" y1="516.29" x2="424.57" y2="516.29" stroke="#2c3e50" stroke-width="3" stroke-linecap="round" />
    <line x1="424.57" y1="516.29" x2="424.57" y2="337.14" stroke="#2c3e50" stroke-width="3" stroke-linecap="round" />
    <line x1="311.43" y1="337.14" x2="424.57" y2="337.14" stroke="#2c3e50" stroke-width="3" stroke-linecap="round" />
  
  <!-- Openings (doors/windows) -->
  <line x1="735.71" y1="250.71" x2="735.71" y2="194.14" stroke="#e74c3c" stroke-width="4" stroke-linecap="round" />
    <line x1="148.00" y1="337.14" x2="204.57" y2="337.14" stroke="#e74c3c" stroke-width="4" stroke-linecap="round" />
    <line x1="273.71" y1="337.14" x2="330.29" y2="337.14" stroke="#e74c3c" stroke-width="4" stroke-linecap="round" />
    <line x1="292.57" y1="455.00" x2="292.57" y2="398.43" stroke="#e74c3c" stroke-width="4" stroke-linecap="round" />
    <line x1="515.71" y1="85.71" x2="657.14" y2="85.71" stroke="#3498db" stroke-width="3" stroke-linecap="round" />
    <line x1="138.57" y1="85.71" x2="232.86" y2="85.71" stroke="#3498db" stroke-width="3" stroke-linecap="round" />
    <line x1="60.00" y1="500.57" x2="60.00" y2="406.29" stroke="#3498db" stroke-width="3" stroke-linecap="round" />
  
  <!-- Labels -->
  <text x="586.43" y="283.71" font-size="14" fill="#2c3e50" text-anchor="middle" dominant-baseline="middle" font-family="Arial, sans-serif">Living Room</text>
    <text x="837.86" y="222.43" font-size="14" fill="#2c3e50" text-anchor="middle" dominant-baseline="middle" font-family="Arial, sans-serif">Kitchen</text>
    <text x="185.71" y="211.43" font-size="14" fill="#2c3e50" text-anchor="middle" dominant-baseline="middle" font-family="Arial, sans-serif">Master Bedroom</text>
    <text x="176.29" y="453.43" font-size="14" fill="#2c3e50" text-anchor="middle" dominant-baseline="middle" font-family="Arial, sans-serif">Bedroom 2</text>
    <text x="358.57" y="426.71" font-size="14" fill="#2c3e50" text-anchor="middle" dominant-baseline="middle" font-family="Arial, sans-serif">Bathroom</text>
  
  <!-- Dimensions -->
  
  
  <!-- Compass / Orientation -->
  
</svg>